<?xml version="1.0" standalone="no"?><!DOCTYPE svg PUBLIC "-//W3C//DTD SVG 1.1//EN" "http://www.w3.org/Graphics/SVG/1.1/DTD/svg11.dtd"><svg t="1679054780044" class="icon" viewBox="0 0 1026 1024" version="1.1" xmlns="http://www.w3.org/2000/svg" p-id="4377" width="32.0625" height="32" xmlns:xlink="http://www.w3.org/1999/xlink"><path d="M1017.215296 297.6c0-90-66.2-162.4-148-162.4C758.415296 130 645.415296 128 530.015296 128c-6 0-12 0-18 0s-12 0-18 0c-115.2 0-228.4 2-339.2 7.2-81.6 0-147.8 72.8-147.8 162.8C2.015296 369.2-0.184704 440.4 0.015296 511.6-0.184704 582.8 2.015296 654 6.815296 725.4c0 90 66.2 163 147.8 163 116.4 5.4 235.8 7.8 357.2 7.6 121.6 0.4 240.6-2 357.2-7.6 81.8 0 148-73 148-163 4.8-71.4 7-142.6 6.8-214C1024.215296 440.2 1022.015296 369 1017.215296 297.6zM414.015296 707.8 414.015296 314.8l290 196.4L414.015296 707.8z" fill="#272636" p-id="4378"></path></svg>